<mxfile host="app.diagrams.net" modified="2022-05-17T10:19:11.903Z" agent="5.0 (Macintosh; Intel Mac OS X 10_15_7) AppleWebKit/537.36 (KHTML, like Gecko) Chrome/101.0.4951.64 Safari/537.36" etag="RvbC0_ylweUH1TozipaU" version="18.0.6" type="github">
  <diagram name="Page-1" id="b5b7bab2-c9e2-2cf4-8b2a-24fd1a2a6d21">
    <mxGraphModel dx="1186" dy="714" grid="0" gridSize="10" guides="1" tooltips="1" connect="1" arrows="1" fold="1" page="1" pageScale="1" pageWidth="827" pageHeight="1169" background="none" math="0" shadow="0">
      <root>
        <mxCell id="0" />
        <mxCell id="1" parent="0" />
        <mxCell id="ywQX7Zo4qPonQueE_1rQ-3" value="" style="rounded=0;whiteSpace=wrap;html=1;fillColor=#EBEBEB;" parent="1" vertex="1">
          <mxGeometry x="240" y="160" width="320" height="530" as="geometry" />
        </mxCell>
        <mxCell id="ywQX7Zo4qPonQueE_1rQ-4" value="Frontend" style="text;html=1;strokeColor=none;fillColor=none;align=center;verticalAlign=middle;whiteSpace=wrap;rounded=0;fontSize=15;" parent="1" vertex="1">
          <mxGeometry x="250" y="170" width="60" height="30" as="geometry" />
        </mxCell>
        <mxCell id="ywQX7Zo4qPonQueE_1rQ-11" style="edgeStyle=orthogonalEdgeStyle;rounded=0;orthogonalLoop=1;jettySize=auto;html=1;fontSize=15;endArrow=none;endFill=0;" parent="1" source="ywQX7Zo4qPonQueE_1rQ-5" target="ywQX7Zo4qPonQueE_1rQ-10" edge="1">
          <mxGeometry relative="1" as="geometry" />
        </mxCell>
        <mxCell id="ywQX7Zo4qPonQueE_1rQ-5" value="User" style="shape=umlActor;verticalLabelPosition=bottom;verticalAlign=top;html=1;outlineConnect=0;fontSize=15;" parent="1" vertex="1">
          <mxGeometry x="160" y="225" width="30" height="60" as="geometry" />
        </mxCell>
        <mxCell id="ywQX7Zo4qPonQueE_1rQ-12" style="rounded=0;orthogonalLoop=1;jettySize=auto;html=1;fontSize=15;endArrow=none;endFill=0;entryX=0;entryY=0.5;entryDx=0;entryDy=0;" parent="1" source="ywQX7Zo4qPonQueE_1rQ-6" target="ywQX7Zo4qPonQueE_1rQ-9" edge="1">
          <mxGeometry relative="1" as="geometry" />
        </mxCell>
        <mxCell id="ywQX7Zo4qPonQueE_1rQ-18" style="edgeStyle=none;rounded=0;orthogonalLoop=1;jettySize=auto;html=1;fontSize=15;endArrow=none;endFill=0;exitX=1;exitY=0.3333333333333333;exitDx=0;exitDy=0;exitPerimeter=0;" parent="1" source="ywQX7Zo4qPonQueE_1rQ-6" target="ywQX7Zo4qPonQueE_1rQ-14" edge="1">
          <mxGeometry relative="1" as="geometry">
            <mxPoint x="150" y="450" as="sourcePoint" />
          </mxGeometry>
        </mxCell>
        <mxCell id="ywQX7Zo4qPonQueE_1rQ-78" style="edgeStyle=none;rounded=0;orthogonalLoop=1;jettySize=auto;html=1;labelBackgroundColor=none;fontSize=12;fontColor=#000000;startArrow=none;startFill=0;endArrow=none;endFill=0;" parent="1" source="ywQX7Zo4qPonQueE_1rQ-6" target="ywQX7Zo4qPonQueE_1rQ-15" edge="1">
          <mxGeometry relative="1" as="geometry" />
        </mxCell>
        <mxCell id="ywQX7Zo4qPonQueE_1rQ-6" value="Student" style="shape=umlActor;verticalLabelPosition=bottom;verticalAlign=top;html=1;outlineConnect=0;fontSize=15;" parent="1" vertex="1">
          <mxGeometry x="160" y="405" width="30" height="60" as="geometry" />
        </mxCell>
        <mxCell id="ywQX7Zo4qPonQueE_1rQ-9" value="sich einloggen" style="ellipse;whiteSpace=wrap;html=1;fontSize=15;" parent="1" vertex="1">
          <mxGeometry x="260" y="285" width="120" height="30" as="geometry" />
        </mxCell>
        <mxCell id="ywQX7Zo4qPonQueE_1rQ-10" value="sich registrieren" style="ellipse;whiteSpace=wrap;html=1;fontSize=15;" parent="1" vertex="1">
          <mxGeometry x="260" y="240" width="120" height="30" as="geometry" />
        </mxCell>
        <mxCell id="ywQX7Zo4qPonQueE_1rQ-29" style="edgeStyle=none;rounded=0;orthogonalLoop=1;jettySize=auto;html=1;entryX=0;entryY=0.5;entryDx=0;entryDy=0;fontSize=15;endArrow=none;endFill=0;" parent="1" source="ywQX7Zo4qPonQueE_1rQ-14" target="ywQX7Zo4qPonQueE_1rQ-27" edge="1">
          <mxGeometry relative="1" as="geometry" />
        </mxCell>
        <mxCell id="ywQX7Zo4qPonQueE_1rQ-14" value="sich fÃ¼r einen Kurs anmelden" style="ellipse;whiteSpace=wrap;html=1;fontSize=15;" parent="1" vertex="1">
          <mxGeometry x="383" y="336" width="140" height="60" as="geometry" />
        </mxCell>
        <mxCell id="ywQX7Zo4qPonQueE_1rQ-15" value="Kurs downloaden" style="ellipse;whiteSpace=wrap;html=1;fontSize=15;" parent="1" vertex="1">
          <mxGeometry x="344" y="441" width="140" height="30" as="geometry" />
        </mxCell>
        <mxCell id="ywQX7Zo4qPonQueE_1rQ-21" style="edgeStyle=none;rounded=0;orthogonalLoop=1;jettySize=auto;html=1;fontSize=15;endArrow=none;endFill=0;" parent="1" source="ywQX7Zo4qPonQueE_1rQ-20" target="ywQX7Zo4qPonQueE_1rQ-6" edge="1">
          <mxGeometry relative="1" as="geometry" />
        </mxCell>
        <mxCell id="ywQX7Zo4qPonQueE_1rQ-30" style="edgeStyle=orthogonalEdgeStyle;rounded=0;orthogonalLoop=1;jettySize=auto;html=1;entryX=0;entryY=0.5;entryDx=0;entryDy=0;fontSize=15;endArrow=none;endFill=0;" parent="1" source="ywQX7Zo4qPonQueE_1rQ-20" target="ywQX7Zo4qPonQueE_1rQ-27" edge="1">
          <mxGeometry relative="1" as="geometry">
            <Array as="points">
              <mxPoint x="580" y="560" />
              <mxPoint x="580" y="425" />
              <mxPoint x="605" y="425" />
            </Array>
          </mxGeometry>
        </mxCell>
        <mxCell id="ywQX7Zo4qPonQueE_1rQ-20" value="Als fertig markieren" style="ellipse;whiteSpace=wrap;html=1;fontSize=15;" parent="1" vertex="1">
          <mxGeometry x="260" y="530" width="110" height="60" as="geometry" />
        </mxCell>
        <mxCell id="ywQX7Zo4qPonQueE_1rQ-22" value="Topic beenden" style="ellipse;whiteSpace=wrap;html=1;fontSize=15;" parent="1" vertex="1">
          <mxGeometry x="360" y="600" width="140" height="30" as="geometry" />
        </mxCell>
        <mxCell id="ywQX7Zo4qPonQueE_1rQ-23" value="Question beantworten" style="ellipse;whiteSpace=wrap;html=1;fontSize=15;" parent="1" vertex="1">
          <mxGeometry x="250" y="630" width="140" height="45" as="geometry" />
        </mxCell>
        <mxCell id="ywQX7Zo4qPonQueE_1rQ-25" value="" style="endArrow=block;endFill=0;endSize=12;html=1;rounded=0;fontSize=15;exitX=0.5;exitY=0;exitDx=0;exitDy=0;entryX=0.5;entryY=1;entryDx=0;entryDy=0;" parent="1" source="ywQX7Zo4qPonQueE_1rQ-23" target="ywQX7Zo4qPonQueE_1rQ-20" edge="1">
          <mxGeometry width="160" relative="1" as="geometry">
            <mxPoint x="316.46000000000004" y="570" as="sourcePoint" />
            <mxPoint x="290.00354778987116" y="538.2522573478454" as="targetPoint" />
          </mxGeometry>
        </mxCell>
        <mxCell id="ywQX7Zo4qPonQueE_1rQ-26" value="" style="endArrow=block;endFill=0;endSize=12;html=1;rounded=0;fontSize=15;exitX=0;exitY=0;exitDx=0;exitDy=0;entryX=1;entryY=1;entryDx=0;entryDy=0;" parent="1" source="ywQX7Zo4qPonQueE_1rQ-22" target="ywQX7Zo4qPonQueE_1rQ-20" edge="1">
          <mxGeometry width="160" relative="1" as="geometry">
            <mxPoint x="413" y="550" as="sourcePoint" />
            <mxPoint x="413" y="500" as="targetPoint" />
          </mxGeometry>
        </mxCell>
        <mxCell id="ywQX7Zo4qPonQueE_1rQ-27" value="" style="whiteSpace=wrap;html=1;aspect=fixed;fontSize=15;" parent="1" vertex="1">
          <mxGeometry x="605" y="385" width="50" height="50" as="geometry" />
        </mxCell>
        <mxCell id="ywQX7Zo4qPonQueE_1rQ-28" value="LMS" style="text;html=1;strokeColor=none;fillColor=none;align=center;verticalAlign=middle;whiteSpace=wrap;rounded=0;fontSize=15;" parent="1" vertex="1">
          <mxGeometry x="600" y="435" width="60" height="30" as="geometry" />
        </mxCell>
        <mxCell id="ywQX7Zo4qPonQueE_1rQ-34" value="&lt;span style=&quot;background-color: rgb(255, 255, 255); font-size: 15px;&quot;&gt;&lt;font style=&quot;font-size: 15px;&quot; color=&quot;#ff270f&quot;&gt;ucd&lt;/font&gt; Kursmanagement&lt;/span&gt;" style="shape=umlFrame;whiteSpace=wrap;html=1;fontSize=12;width=180;height=29;" parent="1" vertex="1">
          <mxGeometry x="135" y="120" width="530" height="580" as="geometry" />
        </mxCell>
        <mxCell id="ywQX7Zo4qPonQueE_1rQ-35" value="" style="rounded=0;whiteSpace=wrap;html=1;fillColor=#EBEBEB;" parent="1" vertex="1">
          <mxGeometry x="232" y="1256" width="320" height="530" as="geometry" />
        </mxCell>
        <mxCell id="ywQX7Zo4qPonQueE_1rQ-36" value="Backend" style="text;html=1;strokeColor=none;fillColor=none;align=center;verticalAlign=middle;whiteSpace=wrap;rounded=0;fontSize=15;" parent="1" vertex="1">
          <mxGeometry x="242" y="1266" width="60" height="30" as="geometry" />
        </mxCell>
        <mxCell id="ywQX7Zo4qPonQueE_1rQ-62" style="edgeStyle=none;rounded=0;orthogonalLoop=1;jettySize=auto;html=1;fontSize=15;fontColor=#FF270F;endArrow=none;endFill=0;" parent="1" source="ywQX7Zo4qPonQueE_1rQ-38" target="ywQX7Zo4qPonQueE_1rQ-42" edge="1">
          <mxGeometry relative="1" as="geometry" />
        </mxCell>
        <mxCell id="ywQX7Zo4qPonQueE_1rQ-66" style="edgeStyle=none;rounded=0;orthogonalLoop=1;jettySize=auto;html=1;fontSize=15;fontColor=#FF270F;endArrow=none;endFill=0;" parent="1" source="ywQX7Zo4qPonQueE_1rQ-38" target="ywQX7Zo4qPonQueE_1rQ-65" edge="1">
          <mxGeometry relative="1" as="geometry" />
        </mxCell>
        <mxCell id="ywQX7Zo4qPonQueE_1rQ-77" style="edgeStyle=none;rounded=0;orthogonalLoop=1;jettySize=auto;html=1;entryX=0;entryY=0;entryDx=0;entryDy=0;labelBackgroundColor=none;fontSize=12;fontColor=#000000;startArrow=none;startFill=0;endArrow=none;endFill=0;" parent="1" source="ywQX7Zo4qPonQueE_1rQ-38" target="ywQX7Zo4qPonQueE_1rQ-73" edge="1">
          <mxGeometry relative="1" as="geometry" />
        </mxCell>
        <mxCell id="ywQX7Zo4qPonQueE_1rQ-38" value="Editor" style="shape=umlActor;verticalLabelPosition=bottom;verticalAlign=top;html=1;outlineConnect=0;fontSize=15;" parent="1" vertex="1">
          <mxGeometry x="152" y="1321" width="30" height="60" as="geometry" />
        </mxCell>
        <mxCell id="ywQX7Zo4qPonQueE_1rQ-64" style="edgeStyle=none;rounded=0;orthogonalLoop=1;jettySize=auto;html=1;entryX=0;entryY=0.5;entryDx=0;entryDy=0;fontSize=15;fontColor=#FF270F;endArrow=none;endFill=0;" parent="1" source="ywQX7Zo4qPonQueE_1rQ-41" target="ywQX7Zo4qPonQueE_1rQ-63" edge="1">
          <mxGeometry relative="1" as="geometry" />
        </mxCell>
        <mxCell id="ywQX7Zo4qPonQueE_1rQ-76" style="edgeStyle=none;rounded=0;orthogonalLoop=1;jettySize=auto;html=1;entryX=0;entryY=0.5;entryDx=0;entryDy=0;labelBackgroundColor=none;fontSize=12;fontColor=#000000;startArrow=none;startFill=0;endArrow=none;endFill=0;" parent="1" source="ywQX7Zo4qPonQueE_1rQ-41" target="ywQX7Zo4qPonQueE_1rQ-75" edge="1">
          <mxGeometry relative="1" as="geometry" />
        </mxCell>
        <mxCell id="ywQX7Zo4qPonQueE_1rQ-41" value="Admin" style="shape=umlActor;verticalLabelPosition=bottom;verticalAlign=top;html=1;outlineConnect=0;fontSize=15;" parent="1" vertex="1">
          <mxGeometry x="152" y="1630" width="30" height="60" as="geometry" />
        </mxCell>
        <mxCell id="ywQX7Zo4qPonQueE_1rQ-42" value="sich einloggen" style="ellipse;whiteSpace=wrap;html=1;fontSize=15;" parent="1" vertex="1">
          <mxGeometry x="302" y="1296" width="120" height="30" as="geometry" />
        </mxCell>
        <mxCell id="ywQX7Zo4qPonQueE_1rQ-59" value="&lt;div style=&quot;&quot;&gt;&lt;font style=&quot;font-size: 15px;&quot; color=&quot;#ff270f&quot;&gt;&amp;nbsp; &amp;nbsp;ucd&lt;/font&gt;&lt;span style=&quot;background-color: rgb(255, 255, 255); font-size: 15px;&quot;&gt;&amp;nbsp;LMS&lt;/span&gt;&lt;/div&gt;" style="shape=umlFrame;whiteSpace=wrap;html=1;fontSize=12;width=180;height=29;align=left;" parent="1" vertex="1">
          <mxGeometry x="127" y="1215" width="530" height="580" as="geometry" />
        </mxCell>
        <mxCell id="ywQX7Zo4qPonQueE_1rQ-61" value="" style="endArrow=block;endFill=0;endSize=12;html=1;rounded=0;fontSize=15;" parent="1" edge="1">
          <mxGeometry width="160" relative="1" as="geometry">
            <mxPoint x="167" y="1610" as="sourcePoint" />
            <mxPoint x="167" y="1420" as="targetPoint" />
          </mxGeometry>
        </mxCell>
        <mxCell id="ywQX7Zo4qPonQueE_1rQ-63" value="Editor registrieren" style="ellipse;whiteSpace=wrap;html=1;fontSize=15;" parent="1" vertex="1">
          <mxGeometry x="265" y="1660" width="130" height="40" as="geometry" />
        </mxCell>
        <mxCell id="ywQX7Zo4qPonQueE_1rQ-65" value="Inhalt erstellen" style="ellipse;whiteSpace=wrap;html=1;fontSize=15;" parent="1" vertex="1">
          <mxGeometry x="297" y="1341" width="130" height="40" as="geometry" />
        </mxCell>
        <mxCell id="ywQX7Zo4qPonQueE_1rQ-72" value="&lt;font style=&quot;font-size: 12px;&quot;&gt;&amp;lt;&amp;lt;include&amp;gt;&amp;gt;&lt;/font&gt;" style="edgeStyle=none;rounded=0;orthogonalLoop=1;jettySize=auto;html=1;entryX=0.6;entryY=0;entryDx=0;entryDy=0;entryPerimeter=0;fontSize=15;fontColor=#000000;startArrow=none;startFill=0;endArrow=classic;endFill=1;dashed=1;labelBackgroundColor=none;" parent="1" source="ywQX7Zo4qPonQueE_1rQ-67" target="ywQX7Zo4qPonQueE_1rQ-71" edge="1">
          <mxGeometry x="0.3801" y="-27" relative="1" as="geometry">
            <mxPoint as="offset" />
          </mxGeometry>
        </mxCell>
        <mxCell id="ywQX7Zo4qPonQueE_1rQ-67" value="User registrieren" style="ellipse;whiteSpace=wrap;html=1;fontSize=15;" parent="1" vertex="1">
          <mxGeometry x="390" y="1485" width="130" height="40" as="geometry" />
        </mxCell>
        <mxCell id="ywQX7Zo4qPonQueE_1rQ-70" style="edgeStyle=none;rounded=0;orthogonalLoop=1;jettySize=auto;html=1;entryX=1;entryY=0.5;entryDx=0;entryDy=0;fontSize=15;fontColor=#000000;endArrow=classic;endFill=1;startArrow=none;startFill=0;" parent="1" source="ywQX7Zo4qPonQueE_1rQ-68" target="ywQX7Zo4qPonQueE_1rQ-67" edge="1">
          <mxGeometry relative="1" as="geometry" />
        </mxCell>
        <mxCell id="ywQX7Zo4qPonQueE_1rQ-68" value="" style="whiteSpace=wrap;html=1;aspect=fixed;labelBackgroundColor=#FFFFFF;fontSize=15;fontColor=#FF270F;fillColor=#FFFFFF;gradientColor=none;" parent="1" vertex="1">
          <mxGeometry x="590" y="1480" width="50" height="50" as="geometry" />
        </mxCell>
        <mxCell id="ywQX7Zo4qPonQueE_1rQ-69" value="&lt;font color=&quot;#000000&quot;&gt;Frontend&lt;/font&gt;" style="text;html=1;strokeColor=none;fillColor=none;align=center;verticalAlign=middle;whiteSpace=wrap;rounded=0;labelBackgroundColor=#FFFFFF;fontSize=15;fontColor=#FF270F;" parent="1" vertex="1">
          <mxGeometry x="585" y="1530" width="60" height="30" as="geometry" />
        </mxCell>
        <mxCell id="ywQX7Zo4qPonQueE_1rQ-71" value="User-Kurs-Relation erstellen" style="ellipse;whiteSpace=wrap;html=1;fontSize=15;" parent="1" vertex="1">
          <mxGeometry x="325" y="1580" width="150" height="50" as="geometry" />
        </mxCell>
        <mxCell id="ywQX7Zo4qPonQueE_1rQ-73" value="Inhalt publizieren" style="ellipse;whiteSpace=wrap;html=1;fontSize=15;" parent="1" vertex="1">
          <mxGeometry x="260" y="1400" width="150" height="40" as="geometry" />
        </mxCell>
        <mxCell id="ywQX7Zo4qPonQueE_1rQ-75" value="Inhalt lÃ¶schen" style="ellipse;whiteSpace=wrap;html=1;fontSize=15;" parent="1" vertex="1">
          <mxGeometry x="265" y="1714" width="130" height="40" as="geometry" />
        </mxCell>
      </root>
    </mxGraphModel>
  </diagram>
</mxfile>
